<svg xmlns="http://www.w3.org/2000/svg" xmlns:xlink="http://www.w3.org/1999/xlink" viewBox="0 0 450 450" width="450" height="450" preserveAspectRatio="xMidYMid slice" fill="none" style="width: 100%; height: 100%; transform: translate3d(0px, 0px, 0px); content-visibility: visible;"><defs><clipPath id="__lottie_element_134"><rect width="450" height="450" x="0" y="0"></rect></clipPath><clipPath id="__lottie_element_136"><path d="M0,0 L800,0 L800,600 L0,600z"></path></clipPath></defs><g clip-path="url(#__lottie_element_134)"><g clip-path="url(#__lottie_element_136)" transform="matrix(1,0,0,1,-175,-75)" opacity="1" style="display: block;"><g transform="matrix(0,0,0,0,511.5419921875,192.72900390625)" opacity="0.25" style="display: block;"><g opacity="1" transform="matrix(1,0,0,1,0,0)"><path fill="rgb(239,153,153)" fill-opacity="1" d=" M4.546999931335449,-10.022000312805176 C2.7950000762939453,-10.022000312805176 1.1990000009536743,-9.352999687194824 0,-8.256999969482422 C-1.1990000009536743,-9.352999687194824 -2.7950000762939453,-10.022000312805176 -4.546999931335449,-10.022000312805176 C-8.270999908447266,-10.022000312805176 -11.288999557495117,-7.004000186920166 -11.288999557495117,-3.2799999713897705 C-11.288999557495117,-1.1349999904632568 -10.543000221252441,0.6420000195503235 -9.131999969482422,2.328000068664551 C-7.7210001945495605,4.013999938964844 -0.004000000189989805,10.022000312805176 -0.004000000189989805,10.022000312805176 C-0.004000000189989805,10.022000312805176 7.760000228881836,4.039999961853027 9.140000343322754,2.2880001068115234 C10.467000007629395,0.6029999852180481 11.288999557495117,-1.121999979019165 11.288999557495117,-3.2799999713897705 C11.288999557495117,-7.004000186920166 8.270999908447266,-10.022000312805176 4.546999931335449,-10.022000312805176z"></path></g></g><g transform="matrix(0,0,0,0,258.5419921875,224.72900390625)" opacity="0.25" style="display: block;"><g opacity="1" transform="matrix(1,0,0,1,0,0)"><path fill="rgb(239,153,153)" fill-opacity="1" d=" M4.546999931335449,-10.022000312805176 C2.7950000762939453,-10.022000312805176 1.1990000009536743,-9.352999687194824 0,-8.256999969482422 C-1.1990000009536743,-9.352999687194824 -2.7950000762939453,-10.022000312805176 -4.546999931335449,-10.022000312805176 C-8.270999908447266,-10.022000312805176 -11.288999557495117,-7.004000186920166 -11.288999557495117,-3.2799999713897705 C-11.288999557495117,-1.1349999904632568 -10.543000221252441,0.6420000195503235 -9.131999969482422,2.328000068664551 C-7.7210001945495605,4.013999938964844 -0.004000000189989805,10.022000312805176 -0.004000000189989805,10.022000312805176 C-0.004000000189989805,10.022000312805176 7.760000228881836,4.039999961853027 9.140000343322754,2.2880001068115234 C10.467000007629395,0.6029999852180481 11.288999557495117,-1.121999979019165 11.288999557495117,-3.2799999713897705 C11.288999557495117,-7.004000186920166 8.270999908447266,-10.022000312805176 4.546999931335449,-10.022000312805176z"></path></g></g><g transform="matrix(0,0,0,0,475.5419921875,111.72899627685547)" opacity="0.25" style="display: block;"><g opacity="1" transform="matrix(1,0,0,1,0,0)"><path fill="rgb(239,153,153)" fill-opacity="1" d=" M4.546999931335449,-10.022000312805176 C2.7950000762939453,-10.022000312805176 1.1990000009536743,-9.352999687194824 0,-8.256999969482422 C-1.1990000009536743,-9.352999687194824 -2.7950000762939453,-10.022000312805176 -4.546999931335449,-10.022000312805176 C-8.270999908447266,-10.022000312805176 -11.288999557495117,-7.004000186920166 -11.288999557495117,-3.2799999713897705 C-11.288999557495117,-1.1349999904632568 -10.543000221252441,0.6420000195503235 -9.131999969482422,2.328000068664551 C-7.7210001945495605,4.013999938964844 -0.004000000189989805,10.022000312805176 -0.004000000189989805,10.022000312805176 C-0.004000000189989805,10.022000312805176 7.760000228881836,4.039999961853027 9.140000343322754,2.2880001068115234 C10.467000007629395,0.6029999852180481 11.288999557495117,-1.121999979019165 11.288999557495117,-3.2799999713897705 C11.288999557495117,-7.004000186920166 8.270999908447266,-10.022000312805176 4.546999931335449,-10.022000312805176z"></path></g></g><g transform="matrix(0,0,0,0,304.5419921875,130.72900390625)" opacity="0.25" style="display: block;"><g opacity="1" transform="matrix(1,0,0,1,0,0)"><path fill="rgb(239,153,153)" fill-opacity="1" d=" M4.546999931335449,-10.022000312805176 C2.7950000762939453,-10.022000312805176 1.1990000009536743,-9.352999687194824 0,-8.256999969482422 C-1.1990000009536743,-9.352999687194824 -2.7950000762939453,-10.022000312805176 -4.546999931335449,-10.022000312805176 C-8.270999908447266,-10.022000312805176 -11.288999557495117,-7.004000186920166 -11.288999557495117,-3.2799999713897705 C-11.288999557495117,-1.1349999904632568 -10.543000221252441,0.6420000195503235 -9.131999969482422,2.328000068664551 C-7.7210001945495605,4.013999938964844 -0.004000000189989805,10.022000312805176 -0.004000000189989805,10.022000312805176 C-0.004000000189989805,10.022000312805176 7.760000228881836,4.039999961853027 9.140000343322754,2.2880001068115234 C10.467000007629395,0.6029999852180481 11.288999557495117,-1.121999979019165 11.288999557495117,-3.2799999713897705 C11.288999557495117,-7.004000186920166 8.270999908447266,-10.022000312805176 4.546999931335449,-10.022000312805176z"></path></g></g><g transform="matrix(0,0,0,0,536.5419921875,311.72900390625)" opacity="0.25" style="display: block;"><g opacity="1" transform="matrix(1,0,0,1,0,0)"><path fill="rgb(239,153,153)" fill-opacity="1" d=" M4.546999931335449,-10.022000312805176 C2.7950000762939453,-10.022000312805176 1.1990000009536743,-9.352999687194824 0,-8.256999969482422 C-1.1990000009536743,-9.352999687194824 -2.7950000762939453,-10.022000312805176 -4.546999931335449,-10.022000312805176 C-8.270999908447266,-10.022000312805176 -11.288999557495117,-7.004000186920166 -11.288999557495117,-3.2799999713897705 C-11.288999557495117,-1.1349999904632568 -10.543000221252441,0.6420000195503235 -9.131999969482422,2.328000068664551 C-7.7210001945495605,4.013999938964844 -0.004000000189989805,10.022000312805176 -0.004000000189989805,10.022000312805176 C-0.004000000189989805,10.022000312805176 7.760000228881836,4.039999961853027 9.140000343322754,2.2880001068115234 C10.467000007629395,0.6029999852180481 11.288999557495117,-1.121999979019165 11.288999557495117,-3.2799999713897705 C11.288999557495117,-7.004000186920166 8.270999908447266,-10.022000312805176 4.546999931335449,-10.022000312805176z"></path></g></g><g transform="matrix(0,0,0,0,387.5419921875,71.72899627685547)" opacity="0.25" style="display: block;"><g opacity="1" transform="matrix(1,0,0,1,0,0)"><path fill="rgb(239,153,153)" fill-opacity="1" d=" M4.546999931335449,-10.022000312805176 C2.7950000762939453,-10.022000312805176 1.1990000009536743,-9.352999687194824 0,-8.256999969482422 C-1.1990000009536743,-9.352999687194824 -2.7950000762939453,-10.022000312805176 -4.546999931335449,-10.022000312805176 C-8.270999908447266,-10.022000312805176 -11.288999557495117,-7.004000186920166 -11.288999557495117,-3.2799999713897705 C-11.288999557495117,-1.1349999904632568 -10.543000221252441,0.6420000195503235 -9.131999969482422,2.328000068664551 C-7.7210001945495605,4.013999938964844 -0.004000000189989805,10.022000312805176 -0.004000000189989805,10.022000312805176 C-0.004000000189989805,10.022000312805176 7.760000228881836,4.039999961853027 9.140000343322754,2.2880001068115234 C10.467000007629395,0.6029999852180481 11.288999557495117,-1.121999979019165 11.288999557495117,-3.2799999713897705 C11.288999557495117,-7.004000186920166 8.270999908447266,-10.022000312805176 4.546999931335449,-10.022000312805176z"></path></g></g><g transform="matrix(0,0,0,0,320.5419921875,326.72900390625)" opacity="0.25" style="display: block;"><g opacity="1" transform="matrix(1,0,0,1,0,0)"><path fill="rgb(239,153,153)" fill-opacity="1" d=" M4.546999931335449,-10.022000312805176 C2.7950000762939453,-10.022000312805176 1.1990000009536743,-9.352999687194824 0,-8.256999969482422 C-1.1990000009536743,-9.352999687194824 -2.7950000762939453,-10.022000312805176 -4.546999931335449,-10.022000312805176 C-8.270999908447266,-10.022000312805176 -11.288999557495117,-7.004000186920166 -11.288999557495117,-3.2799999713897705 C-11.288999557495117,-1.1349999904632568 -10.543000221252441,0.6420000195503235 -9.131999969482422,2.328000068664551 C-7.7210001945495605,4.013999938964844 -0.004000000189989805,10.022000312805176 -0.004000000189989805,10.022000312805176 C-0.004000000189989805,10.022000312805176 7.760000228881836,4.039999961853027 9.140000343322754,2.2880001068115234 C10.467000007629395,0.6029999852180481 11.288999557495117,-1.121999979019165 11.288999557495117,-3.2799999713897705 C11.288999557495117,-7.004000186920166 8.270999908447266,-10.022000312805176 4.546999931335449,-10.022000312805176z"></path></g></g><g transform="matrix(1,0,0,1,400,300)" opacity="1" style="display: block;"><g opacity="1" transform="matrix(1,0,0,1,0,0)"><path stroke-linecap="butt" stroke-linejoin="miter" fill-opacity="0" stroke-miterlimit="4" stroke="rgb(189,189,189)" stroke-opacity="1" stroke-width="12" d=" M20.62299919128418,-45.452999114990234 C12.675999641418457,-45.452999114990234 5.438000202178955,-42.41999816894531 0,-37.45000076293945 C-5.438000202178955,-42.41999816894531 -12.675999641418457,-45.452999114990234 -20.62299919128418,-45.452999114990234 C-37.51100158691406,-45.452999114990234 -51.20100021362305,-31.76300048828125 -51.20100021362305,-14.875 C-51.20100021362305,-5.144999980926514 -47.81999969482422,2.9149999618530273 -41.41999816894531,10.5600004196167 C-35.02000045776367,18.204999923706055 -0.019999999552965164,45.452999114990234 -0.019999999552965164,45.452999114990234 C-0.019999999552965164,45.452999114990234 35.196998596191406,18.32699966430664 41.45500183105469,10.378999710083008 C47.47200012207031,2.736999988555908 51.20100021362305,-5.085999965667725 51.20100021362305,-14.875 C51.20100021362305,-31.76300048828125 37.51100158691406,-45.452999114990234 20.62299919128418,-45.452999114990234z"></path></g></g><g transform="matrix(1,0,0,1,400,300)" opacity="1" style="display: block;"><g opacity="1" transform="matrix(1,0,0,1,0,0)"><path fill="currentColor" fill-opacity="1" d=" M-0.03999999910593033,52.24800109863281 C-0.03999999910593033,52.24800109863281 -3.7060000896453857,49.393001556396484 -3.7060000896453857,49.393001556396484 C-7.341000080108643,46.56399917602539 -39.400001525878906,21.523000717163086 -46.02000045776367,13.616999626159668 C-53.54399871826172,4.63100004196167 -57.20199966430664,-4.947999954223633 -57.20199966430664,-15.668000221252441 C-57.20199966430664,-35.8380012512207 -40.792999267578125,-52.24800109863281 -20.62299919128418,-52.24800109863281 C-13.204999923706055,-52.24800109863281 -6.045000076293945,-50.013999938964844 0,-45.88100051879883 C6.044000148773193,-50.01499938964844 13.204999923706055,-52.24800109863281 20.62299919128418,-52.24800109863281 C40.792999267578125,-52.24800109863281 57.20199966430664,-35.8380012512207 57.20199966430664,-15.668000221252441 C57.20199966430664,-5.466000080108643 53.69499969482422,3.7360000610351562 46.16899871826172,13.295999526977539 C39.638999938964844,21.590999603271484 7.306000232696533,46.59000015258789 3.6410000324249268,49.41299819946289 C3.6410000324249268,49.41299819946289 -0.03999999910593033,52.24800109863281 -0.03999999910593033,52.24800109863281z"></path></g></g></g></g></svg>