<svg xmlns="http://www.w3.org/2000/svg" xmlns:xlink="http://www.w3.org/1999/xlink" viewBox="0 0 500 500" width="500" height="500" preserveAspectRatio="xMidYMid slice" style="width: 100%; height: 100%; transform: translate3d(0px, 0px, 0px); content-visibility: visible;"><defs><clipPath id="__lottie_element_18"><rect width="500" height="500" x="0" y="0"></rect></clipPath></defs><g clip-path="url(#__lottie_element_18)"><g transform="matrix(0.9900000095367432,0,0,0.9900000095367432,233.1699981689453,240.10000610351562)" opacity="1" style="display: block;"><g opacity="1" transform="matrix(1,0,0,1,17,10)"><path fill="rgb(213,40,13)" fill-opacity="1" d=" M0,-161 C88.85590362548828,-161 161,-88.85590362548828 161,0 C161,88.85590362548828 88.85590362548828,161 0,161 C-88.85590362548828,161 -161,88.85590362548828 -161,0 C-161,-88.85590362548828 -88.85590362548828,-161 0,-161z"></path><path stroke-linecap="round" stroke-linejoin="round" fill-opacity="0" stroke="rgb(255,255,255)" stroke-opacity="1" stroke-width="15" d=" M0,-161 C88.85590362548828,-161 161,-88.85590362548828 161,0 C161,88.85590362548828 88.85590362548828,161 0,161 C-88.85590362548828,161 -161,88.85590362548828 -161,0 C-161,-88.85590362548828 -88.85590362548828,-161 0,-161z"></path></g></g><g transform="matrix(1.1399999856948853,0,0,1.1399999856948853,322.2223205566406,258.46282958984375)" opacity="0.07484751986087261" style="display: none;"><g opacity="1" transform="matrix(1,0,0,1,0,0)"><path fill="rgb(160,87,0)" fill-opacity="1" d=" M-30.30699920654297,-160.29400634765625 C-31.0049991607666,-160.05499267578125 -62.0260009765625,-163.14500427246094 -62.0260009765625,-163.14500427246094"></path><path stroke-linecap="round" stroke-linejoin="miter" fill-opacity="0" stroke-miterlimit="4" stroke="rgb(213,40,13)" stroke-opacity="1" stroke-width="15" d=" M-30.30699920654297,-160.29400634765625 C-31.0049991607666,-160.05499267578125 -62.0260009765625,-163.14500427246094 -62.0260009765625,-163.14500427246094"></path></g></g><g transform="matrix(0,0.8999999761581421,-0.8999999761581421,0,286.8999938964844,-130.6999969482422)" opacity="1" style="display: block;"><g opacity="1" transform="matrix(1.49836003780365,0,0,1.49836003780365,-210.30792236328125,-21.429481506347656)"><path stroke-linecap="round" stroke-linejoin="round" fill-opacity="0" stroke="rgb(255,255,255)" stroke-opacity="1" stroke-width="12" d=" M373.197998046875,-8.802000045776367 C402.1300048828125,20.1299991607666 443.8699951171875,61.869998931884766 472.802001953125,90.802001953125"></path></g></g><g transform="matrix(0.8999999761581421,0,0,0.8999999761581421,-130.6999969482422,213.10000610351562)" opacity="1" style="display: block;"><g opacity="1" transform="matrix(1.49836003780365,0,0,1.49836003780365,-210.30792236328125,-21.429481506347656)"><path stroke-linecap="round" stroke-linejoin="round" fill-opacity="0" stroke="rgb(255,255,255)" stroke-opacity="1" stroke-width="12" d=" M373.197998046875,-8.802000045776367 C402.1300048828125,20.1299991607666 443.8699951171875,61.869998931884766 472.802001953125,90.802001953125"></path></g></g></g></svg>