<svg xmlns="http://www.w3.org/2000/svg" fill="none" viewBox="0 0 32 32">
  <path stroke="" stroke-linecap="round" stroke-linejoin="round" stroke-width="1.5" d="M17.187 7.84H6.813a4.16 4.16 0 0 0-4.146 4.147v15.146c0 1.934 1.386 2.76 3.08 1.814l5.24-2.92c.56-.307 1.466-.307 2.013 0l5.24 2.92c1.693.946 3.08.12 3.08-1.814V11.987c.013-2.28-1.853-4.147-4.133-4.147Z"/>
  <path stroke="" stroke-linecap="round" stroke-linejoin="round" stroke-width="1.5" d="M21.333 11.987v15.146c0 1.934-1.386 2.747-3.08 1.814l-5.24-2.92c-.56-.307-1.466-.307-2.026 0l-5.24 2.92c-1.694.933-3.08.12-3.08-1.814V11.987A4.16 4.16 0 0 1 6.813 7.84h10.374a4.16 4.16 0 0 1 4.146 4.147Z"/>
  <path stroke="" stroke-linecap="round" stroke-linejoin="round" stroke-width="1.5" d="M29.333 6.813V21.96c0 1.933-1.386 2.747-3.08 1.813l-4.92-2.746v-9.04a4.16 4.16 0 0 0-4.146-4.147h-6.52V6.813a4.16 4.16 0 0 1 4.146-4.146h10.374a4.16 4.16 0 0 1 4.146 4.146Z"/>
</svg>
