<svg xmlns="http://www.w3.org/2000/svg" xmlns:xlink="http://www.w3.org/1999/xlink" viewBox="0 0 150 150" width="150" height="150" preserveAspectRatio="xMidYMid slice" style="width: 100%; height: 100%; transform: translate3d(0px, 0px, 0px); content-visibility: visible;"><defs><clipPath id="__lottie_element_10"><rect width="150" height="150" x="0" y="0"></rect></clipPath></defs><g clip-path="url(#__lottie_element_10)"><g transform="matrix(0.999999463558197,0,0,0.999999463558197,75,75)" opacity="1" style="display: block;"><g opacity="1" transform="matrix(1,0,0,1,0,0)"><path fill="rgb(37,190,83)" fill-opacity="1" d=" M0,-67.41999816894531 C37.20909881591797,-67.41999816894531 67.41999816894531,-37.20909881591797 67.41999816894531,0 C67.41999816894531,37.20909881591797 37.20909881591797,67.41999816894531 0,67.41999816894531 C-37.20909881591797,67.41999816894531 -67.41999816894531,37.20909881591797 -67.41999816894531,0 C-67.41999816894531,-37.20909881591797 -37.20909881591797,-67.41999816894531 0,-67.41999816894531z"></path></g></g><g transform="matrix(0.9999998211860657,0,0,0.9999998211860657,76.5,77.5)" opacity="1" style="display: block;"><g opacity="1" transform="matrix(1,0,0,1,0,0)"><path stroke-linecap="round" stroke-linejoin="round" fill-opacity="0" stroke="rgb(255,255,255)" stroke-opacity="1" stroke-width="8" d=" M-35.5,0 C-35.5,0 -13.5,23.5 -13.5,23.5 C-13.5,23.5 30.125,-26.125 30.125,-26.125"></path></g></g></g></svg>