<svg version="1.1" xmlns="http://www.w3.org/2000/svg" xmlns:xlink="http://www.w3.org/1999/xlink" x="0px" y="0px"
	 viewBox="0 0 750 500" style="enable-background:new 0 0 750 500;" xml:space="preserve">
<g id="BACKGROUND">
	<g>
		<g>
			<linearGradient id="SVGID_1_" gradientUnits="userSpaceOnUse" x1="352.7935" y1="117.8971" x2="352.7935" y2="400.5938">
				<stop  offset="0" style="stop-color:#8AB9FD"/>
				<stop  offset="1" style="stop-color:#0056E9"/>
			</linearGradient>
			<path style="opacity:0.1;fill:url(#SVGID_1_);" d="M527.701,375.087c28.305-16.973,54.588-38.654,71.609-66.931
				c29.635-49.234,25.732-116.863-10.436-161.518s-102.526-62.405-155.663-40.53c-24.279,9.995-45.901,27.338-71.813,31.568
				c-23.724,3.873-47.575-3.81-71.194-8.277c-23.62-4.467-50.511-4.917-68.895,10.572c-19.679,16.58-23.546,46.381-42.448,63.842
				c-14.843,13.712-36.228,17.368-53.698,27.524c-17.351,10.087-30.706,27.005-36.031,46.357
				c-5.325,19.351-2.43,40.912,8.211,57.929c7.768,12.422,19.211,22.126,31.27,30.449c44.815,30.933,98.678,44.41,151.924,51.817
				c54.193,7.538,107.596,8.077,160.904-6.268C471.687,403.482,500.832,391.199,527.701,375.087z"/>
			
				<linearGradient id="SVGID_00000007392100109907314980000010683424883800672670_" gradientUnits="userSpaceOnUse" x1="126.803" y1="117.897" x2="126.803" y2="400.5937">
				<stop  offset="0" style="stop-color:#8AB9FD"/>
				<stop  offset="1" style="stop-color:#0056E9"/>
			</linearGradient>
			<path style="opacity:0.1;fill:url(#SVGID_00000007392100109907314980000010683424883800672670_);" d="M74.362,161.577
				c-25.373,38.66,72.67,61.639,99.478,20.405c10.212-15.706,13.957-34.5,2.592-49.214c-7.443-9.637-18.422-12.397-30.422-12.396
				C119.074,120.376,92.285,134.269,74.362,161.577z"/>
		</g>
	</g>
</g>
<g id="OBJECTS">
	<g>
		
			<linearGradient id="SVGID_00000050646879001149093190000012533358566862355604_" gradientUnits="userSpaceOnUse" x1="210.4784" y1="458.7481" x2="210.4784" y2="390.1051">
			<stop  offset="0" style="stop-color:#53B0B1"/>
			<stop  offset="1" style="stop-color:#6ACAD8"/>
		</linearGradient>
		<path style="fill:url(#SVGID_00000050646879001149093190000012533358566862355604_);" d="M167.457,455.506
			c0,0,10.979-8.758,44.425-9.013c0,0-31.66-6.948-48-23.389c0,0,22.643-2.143,54.128,9.091c0,0-23.878-16.851-35.735-41.046
			c0,0,24.115,13.153,42.819,34.504c0,0-7.594-26.773-7.849-47.392c0,0,31.404,26.258,39.83,77.245H167.457z"/>
		<g>
			<path style="fill:none;stroke:#1C1C23;stroke-width:2;stroke-linecap:round;stroke-linejoin:round;stroke-miterlimit:10;" d="
				M474.873,346.552c0,0,22.712,28.706,22.712,79.1"/>
			<path style="fill:#1C1C23;" d="M539.968,321.137"/>
			<g>
				
					<linearGradient id="SVGID_00000087370913706177623950000007723726196820956863_" gradientUnits="userSpaceOnUse" x1="485.7591" y1="381.0486" x2="455.8393" y2="371.4413">
					<stop  offset="0" style="stop-color:#53B0B1"/>
					<stop  offset="1" style="stop-color:#6ACAD8"/>
				</linearGradient>
				<path style="fill:url(#SVGID_00000087370913706177623950000007723726196820956863_);" d="M487.784,382.984
					c0,0-31.052,4.458-31.051-8.874C456.735,361.087,480.223,367.319,487.784,382.984z"/>
				<path style="fill:none;stroke:#1C1C23;stroke-linecap:round;stroke-linejoin:round;stroke-miterlimit:10;" d="M470.586,374.748
					c0,0,11.361,1.898,22.371,12.694"/>
			</g>
			<g>
				
					<linearGradient id="SVGID_00000142894723120696777690000010706754651860290733_" gradientUnits="userSpaceOnUse" x1="7012.6904" y1="-2757.251" x2="6982.7715" y2="-2766.8582" gradientTransform="matrix(-0.6273 0.7788 0.7788 0.6273 7035.3296 -3366.7283)">
					<stop  offset="0" style="stop-color:#53B0B1"/>
					<stop  offset="1" style="stop-color:#6ACAD8"/>
				</linearGradient>
				<path style="fill:url(#SVGID_00000142894723120696777690000010706754651860290733_);" d="M489.158,367.923
					c0,0,22.951-21.386,12.567-29.748C491.583,330.006,481.701,352.207,489.158,367.923z"/>
				<path style="fill:none;stroke:#1C1C23;stroke-linecap:round;stroke-linejoin:round;stroke-miterlimit:10;" d="M493.533,349.363
					c0,0-5.648,10.039-4.148,25.385"/>
			</g>
			<g>
				<path style="fill:#1C1C23;" d="M507.828,385.641c0,0,31.259-2.639,28.26-15.629
					C533.158,357.323,511.673,368.677,507.828,385.641z"/>
				<path style="fill:none;stroke:#1C1C23;stroke-linecap:round;stroke-linejoin:round;stroke-miterlimit:10;" d="M522.734,373.749
					c0,0-10.643,4.405-18.944,17.4"/>
			</g>
			<path style="fill:none;stroke:#1C1C23;stroke-width:2;stroke-linecap:round;stroke-linejoin:round;stroke-miterlimit:10;" d="
				M500.393,425.653c0,0-1.532-42.95,17.872-67.097"/>
			<polygon style="fill:#1C1C23;" points="515.916,455.506 481.275,455.506 468.223,410.955 528.968,410.955 			"/>
			<g>
				<defs>
					<polygon id="SVGID_00000137824241445646862520000012060677372178113205_" points="515.916,455.506 481.275,455.506 
						468.223,410.955 528.968,410.955 					"/>
				</defs>
				<clipPath id="SVGID_00000058563196947214322650000012688867916432401024_">
					<use xlink:href="#SVGID_00000137824241445646862520000012060677372178113205_"  style="overflow:visible;"/>
				</clipPath>
				<g style="clip-path:url(#SVGID_00000058563196947214322650000012688867916432401024_);">
					<path style="fill:none;stroke:#FFFFFF;stroke-width:2;stroke-miterlimit:10;" d="M466.262,421.95
						c4.073-2.188,8.343-4.431,12.965-4.527c4.622-0.096,9.659,2.701,10.462,7.254c0.821,4.656-2.843,9.674-0.775,13.925
						c1.175,2.416,3.955,3.716,6.637,3.884c1.334,0.084,2.688-0.067,3.953-0.5c1.592-0.544,3.006-1.516,4.571-2.136
						c2.441-0.966,5.229-1.024,7.708-0.16c2.261,0.788,4.196,2.28,6.102,3.728c1.839,1.397,4.073,2.853,6.289,2.201
						c2.166-0.637,3.292-3.046,3.646-5.276c0.354-2.23,0.222-4.577,1.092-6.66"/>
					<path style="fill:none;stroke:#FFFFFF;stroke-width:2;stroke-miterlimit:10;" d="M517.079,405.06
						c-16.772,6.199-18.638,17.41-17.878,20.189c1.831,6.691,9.18,4.352,11.968,3.043c1.636-0.768,3.052-1.951,4.689-2.716
						c3.268-1.526,7.122-1.244,10.579-0.215c1.883,0.56,3.741,1.337,5.705,1.391c1.964,0.054,4.129-0.837,4.838-2.669"/>
					<path style="fill:none;stroke:#FFFFFF;stroke-width:2;stroke-miterlimit:10;" d="M475.064,450.749
						c4.102-0.674,8.333-1.345,12.378-0.389c5.228,1.235,9.478,5.041,12.864,9.212"/>
				</g>
			</g>
		</g>
	</g>
	<g>
		<g>
			<g>
				
					<linearGradient id="SVGID_00000041258724301634624670000009504245748395337150_" gradientUnits="userSpaceOnUse" x1="155.6721" y1="336.8131" x2="375.9707" y2="336.8131">
					<stop  offset="0" style="stop-color:#8AB9FD"/>
					<stop  offset="1" style="stop-color:#0056E9"/>
				</linearGradient>
				<path style="fill:url(#SVGID_00000041258724301634624670000009504245748395337150_);" d="M370.403,354.897l-129.716-119.85
					c-4.769-4.406-11.786-5.984-15.758-3.471l-63.095,39.928l-6.162-3.301v11.817l0.01-0.004c-0.087,3.123,1.391,6.517,4.483,9.374
					l162.42,150.066c2.711,2.505,5.737,3.738,8.536,3.782l-0.006,0.009h13.143l-4.845-5.214l35.692-67.702
					C377.299,366.173,375.172,359.303,370.403,354.897z"/>
				<path style="fill:#1C1C23;" d="M391.025,365.041l-38.433,72.9c-3.439,6.524-11.493,7.157-17.898,1.24L160.492,278.229
					c-6.404-5.917-6.409-13.996-0.177-17.94l69.639-44.068c4.26-2.696,11.786-1.003,16.9,3.722L385.98,348.487
					C391.095,353.213,393.376,360.582,391.025,365.041z"/>
				<path style="fill:#FFFFFF;" d="M387.914,363.053l-38.202,70.966c-2.747,5.103-9.107,5.551-14.147,0.893L164.093,276.484
					c-5.041-4.657-5.091-11.027-0.214-14.162l67.82-43.601c3.375-2.17,9.372-0.843,13.452,2.927l138.792,128.235
					C388.022,353.652,389.815,359.522,387.914,363.053z"/>
				
					<linearGradient id="SVGID_00000050640187031042925920000005233377903898392755_" gradientUnits="userSpaceOnUse" x1="1543.0283" y1="-2715.2588" x2="1543.0283" y2="-2541.8032" gradientTransform="matrix(0.6786 -0.7345 0.7345 0.6786 1166.3632 3237.521)">
					<stop  offset="0" style="stop-color:#8AB9FD"/>
					<stop  offset="1" style="stop-color:#0056E9"/>
				</linearGradient>
				<polygon style="fill:url(#SVGID_00000050640187031042925920000005233377903898392755_);" points="362.86,333.799 
					313.321,409.25 200.916,305.395 270.624,248.579 				"/>
				
					<linearGradient id="SVGID_00000137110486975295470640000013621783723784852613_" gradientUnits="userSpaceOnUse" x1="1533.3635" y1="-2915.3284" x2="1533.3635" y2="-2646.8345" gradientTransform="matrix(0.6786 -0.7345 0.7345 0.6786 1166.3632 3237.521)">
					<stop  offset="0" style="stop-color:#8AB9FD"/>
					<stop  offset="1" style="stop-color:#0056E9"/>
				</linearGradient>
				<path style="fill:url(#SVGID_00000137110486975295470640000013621783723784852613_);" d="M250.29,257.386l-53.559,42.427
					c-0.551,0.436-1.495,0.333-2.107-0.233l0,0c-0.612-0.566-0.658-1.377-0.104-1.81l53.861-42.149
					c0.412-0.322,1.172-0.189,1.698,0.297l0,0C250.605,256.405,250.7,257.062,250.29,257.386z"/>
				
					<linearGradient id="SVGID_00000093135167181172791360000015408518782117856133_" gradientUnits="userSpaceOnUse" x1="1548.2916" y1="-2725.2944" x2="1548.2916" y2="-2689.8101" gradientTransform="matrix(0.6786 -0.7345 0.7345 0.6786 1166.3632 3237.521)">
					<stop  offset="0" style="stop-color:#8AB9FD"/>
					<stop  offset="1" style="stop-color:#0056E9"/>
				</linearGradient>
				<path style="opacity:0.5;fill:url(#SVGID_00000093135167181172791360000015408518782117856133_);" d="M236.104,244.28
					l-31.244,22.597c-0.507,0.367-1.386,0.234-1.961-0.298l0,0c-0.575-0.532-0.627-1.259-0.117-1.623l31.413-22.441
					c0.429-0.307,1.203-0.161,1.729,0.325l0,0C236.45,243.327,236.531,243.971,236.104,244.28z"/>
				
					<linearGradient id="SVGID_00000070088581417215898700000007518125419093344934_" gradientUnits="userSpaceOnUse" x1="1548.5645" y1="-2554.2124" x2="1548.5645" y2="-2497.0708" gradientTransform="matrix(0.6786 -0.7345 0.7345 0.6786 1166.3632 3237.521)">
					<stop  offset="0" style="stop-color:#8AB9FD"/>
					<stop  offset="1" style="stop-color:#0056E9"/>
				</linearGradient>
				<path style="opacity:0.5;fill:url(#SVGID_00000070088581417215898700000007518125419093344934_);" d="M369.222,340.837
					l-40.961,65.499c-0.358,0.573-1.135,0.59-1.733,0.037l0,0c-0.599-0.553-0.79-1.465-0.429-2.035l41.3-65.185
					c0.256-0.404,0.871-0.355,1.373,0.109l0,0C369.274,339.725,369.476,340.43,369.222,340.837z"/>
				
					<linearGradient id="SVGID_00000068667567763384576200000015969354408422679940_" gradientUnits="userSpaceOnUse" x1="1543.0265" y1="-2548.6499" x2="1543.0265" y2="-2480.3418" gradientTransform="matrix(0.6786 -0.7345 0.7345 0.6786 1166.3632 3237.521)">
					<stop  offset="0" style="stop-color:#8AB9FD"/>
					<stop  offset="1" style="stop-color:#0056E9"/>
				</linearGradient>
				<path style="opacity:0.5;fill:url(#SVGID_00000068667567763384576200000015969354408422679940_);" d="M373.38,344.679
					l-46.022,75.827c-0.368,0.606-1.163,0.64-1.775,0.074l0,0c-0.612-0.566-0.807-1.514-0.436-2.117l46.41-75.468
					c0.251-0.409,0.862-0.363,1.364,0.101l0,0C373.424,343.56,373.63,344.268,373.38,344.679z"/>
				
					<linearGradient id="SVGID_00000026143544403074921370000006942214973469636027_" gradientUnits="userSpaceOnUse" x1="1543.0264" y1="-2543.0256" x2="1543.0264" y2="-2470.6162" gradientTransform="matrix(0.6786 -0.7345 0.7345 0.6786 1166.3632 3237.521)">
					<stop  offset="0" style="stop-color:#8AB9FD"/>
					<stop  offset="1" style="stop-color:#0056E9"/>
				</linearGradient>
				<path style="opacity:0.5;fill:url(#SVGID_00000026143544403074921370000006942214973469636027_);" d="M377.539,348.521
					l-45.136,76.645c-0.361,0.612-1.15,0.652-1.762,0.086l0,0c-0.612-0.566-0.813-1.52-0.449-2.129l45.524-76.286
					c0.247-0.413,0.853-0.371,1.356,0.093l0,0C377.574,347.394,377.784,348.106,377.539,348.521z"/>
				
					<linearGradient id="SVGID_00000176746095118654468110000013250547065608666785_" gradientUnits="userSpaceOnUse" x1="1539.0283" y1="-2719.396" x2="1539.0283" y2="-2697.4224" gradientTransform="matrix(0.6786 -0.7345 0.7345 0.6786 1166.3632 3237.521)">
					<stop  offset="0" style="stop-color:#8AB9FD"/>
					<stop  offset="1" style="stop-color:#0056E9"/>
				</linearGradient>
				<path style="opacity:0.5;fill:url(#SVGID_00000176746095118654468110000013250547065608666785_);" d="M224.792,259.164
					l-15.688,11.634c-0.502,0.372-1.376,0.243-1.951-0.288l0,0c-0.575-0.532-0.632-1.263-0.128-1.632l15.773-11.555
					c0.462-0.339,1.281-0.202,1.83,0.306l0,0C225.178,258.136,225.251,258.823,224.792,259.164z"/>
				
					<linearGradient id="SVGID_00000145759517471062339580000002224320015356737209_" gradientUnits="userSpaceOnUse" x1="1508.6494" y1="-2738.0439" x2="1508.6494" y2="-2653.1057" gradientTransform="matrix(0.6786 -0.7345 0.7345 0.6786 1166.3632 3237.521)">
					<stop  offset="0" style="stop-color:#8AB9FD"/>
					<stop  offset="1" style="stop-color:#0056E9"/>
				</linearGradient>
				<path style="opacity:0.5;fill:url(#SVGID_00000145759517471062339580000002224320015356737209_);" d="M197.151,274.314
					c4.916,4.542,5.363,10.937,0.907,14.351c-4.56,3.495-12.491,2.549-17.616-2.187c-5.126-4.736-5.33-11.306-0.559-14.605
					C184.546,268.649,192.234,269.771,197.151,274.314z"/>
				
					<linearGradient id="SVGID_00000167360505404422360010000015942495237526111906_" gradientUnits="userSpaceOnUse" x1="1515.4203" y1="-2736.5122" x2="1515.4203" y2="-2652.7866" gradientTransform="matrix(0.6786 -0.7345 0.7345 0.6786 1166.3632 3237.521)">
					<stop  offset="0" style="stop-color:#8AB9FD"/>
					<stop  offset="1" style="stop-color:#0056E9"/>
				</linearGradient>
				<path style="fill:url(#SVGID_00000167360505404422360010000015942495237526111906_);" d="M202.5,270.419
					c4.849,4.48,5.338,10.751,1.005,14.072c-4.433,3.397-12.199,2.425-17.252-2.244c-5.053-4.668-5.31-11.108-0.67-14.315
					C190.118,264.797,197.651,265.939,202.5,270.419z"/>
				
					<linearGradient id="SVGID_00000174567628703520059220000016643025400002868123_" gradientUnits="userSpaceOnUse" x1="1501.3932" y1="-2540.301" x2="1501.3932" y2="-2516.5151" gradientTransform="matrix(0.6786 -0.7345 0.7345 0.6786 1166.3632 3237.521)">
					<stop  offset="0" style="stop-color:#8AB9FD"/>
					<stop  offset="1" style="stop-color:#0056E9"/>
				</linearGradient>
				<path style="opacity:0.5;fill:url(#SVGID_00000174567628703520059220000016643025400002868123_);" d="M323.653,410.94
					c1.399,1.293,1.846,3.449,0.994,4.824c-0.858,1.384-2.705,1.452-4.121,0.144c-1.416-1.308-1.85-3.484-0.976-4.853
					C320.419,409.695,322.254,409.647,323.653,410.94z"/>
				
					<linearGradient id="SVGID_00000053525731266272500320000016059579831583159989_" gradientUnits="userSpaceOnUse" x1="1504.2617" y1="-2540.8127" x2="1504.2617" y2="-2517.1687" gradientTransform="matrix(0.6786 -0.7345 0.7345 0.6786 1166.3632 3237.521)">
					<stop  offset="0" style="stop-color:#8AB9FD"/>
					<stop  offset="1" style="stop-color:#0056E9"/>
				</linearGradient>
				<path style="fill:url(#SVGID_00000053525731266272500320000016059579831583159989_);" d="M325.189,408.5
					c1.391,1.285,1.84,3.422,0.997,4.781c-0.848,1.368-2.68,1.429-4.088,0.128c-1.407-1.3-1.844-3.457-0.979-4.81
					C321.978,407.255,323.798,407.214,325.189,408.5z"/>
			</g>
			<path style="fill:#1C1C23;" d="M207.742,327.312L207.742,327.312c-0.701,0.757-1.882,0.802-2.638,0.101l-21.496-19.907
				c-0.757-0.701-0.802-1.882-0.101-2.638l0,0c0.701-0.757,1.882-0.802,2.638-0.101l21.496,19.907
				C208.397,325.374,208.442,326.556,207.742,327.312z"/>
		</g>
		<g>
			
				<linearGradient id="SVGID_00000168093241405597221960000005356161983001164164_" gradientUnits="userSpaceOnUse" x1="255.2637" y1="359.8042" x2="458.2422" y2="126.9534">
				<stop  offset="0" style="stop-color:#E4816F"/>
				<stop  offset="1" style="stop-color:#E25E52"/>
			</linearGradient>
			<path style="fill:url(#SVGID_00000168093241405597221960000005356161983001164164_);" d="M307.615,379.108
				c-0.191,0-0.383-0.001-0.576-0.004c-17.449-0.244-37.809-11.519-51.866-28.723c-11.607-14.206-16.48-31.1-12.717-44.09
				c2.617-9.029,9.268-15.557,19.232-18.877c23.495-7.831,49.647,12.355,60.71,29.188c11.369,17.3,7.105,33.466-2.165,41.814
				c-9.416,8.481-28.038,12.141-49.535-5.456c-13.641-11.61-19.448-27.323-14.81-40.043c3.382-9.276,11.745-14.851,22.372-14.914
				c0.046,0,0.092,0,0.138,0c10.021,0,21.83,6.422,30.128,16.395c6.605,7.939,9.592,16.693,8.192,24.017
				c-0.811,4.243-3.612,10.036-9.045,13.57c-4.352,2.83-9.665,3.626-15.371,2.3c-12.561-2.922-24.156-13.011-27.57-23.991
				c-2.03-6.531-0.859-12.637,3.296-17.195c4.809-5.273,11.867-7.087,19.371-4.972c9.436,2.658,16.984,10.728,18.786,20.081
				c0.638,3.312-0.039,6.47-1.956,9.131c-2.212,3.071-5.917,5.222-9.913,5.754c-4.81,0.638-10.551-1.245-14.994-4.916
				c-4.048-3.345-6.421-7.688-6.682-12.227c-0.225-3.895,1.87-7.602,5.335-9.445c3.69-1.963,8.053-1.384,11.966,1.595
				c5.582,4.249,5.501,8.799,3.735,11.404c-1.897,2.8-5.624,3.651-8.483,1.934c-1.813-1.088-3.796-3.209-3.925-5.9
				c-0.026-0.552,0.399-1.02,0.951-1.047c0.54-0.015,1.02,0.398,1.047,0.951c0.091,1.903,1.587,3.459,2.956,4.281
				c2.177,1.305,4.656,0.344,5.799-1.341c1.337-1.973,1.174-5.292-3.291-8.69c-3.266-2.486-6.843-3.003-9.816-1.421
				c-2.734,1.455-4.453,4.495-4.277,7.564c0.228,3.978,2.346,7.813,5.96,10.8c3.968,3.279,9.256,5.036,13.456,4.475
				c3.46-0.46,6.658-2.307,8.554-4.94c1.588-2.204,2.146-4.827,1.614-7.585c-1.661-8.628-8.639-16.077-17.363-18.534
				c-6.748-1.9-13.071-0.298-17.351,4.395c-4.688,5.142-4.145,11.133-2.864,15.253c3.217,10.345,14.198,19.865,26.113,22.636
				c5.234,1.216,9.888,0.535,13.828-2.028c4.91-3.195,7.471-8.605,8.17-12.268c1.287-6.735-1.544-14.886-7.765-22.363
				c-7.813-9.389-19.287-15.674-28.595-15.674c-0.041,0-0.081,0-0.122,0c-9.756,0.058-17.422,5.141-20.505,13.599
				c-4.349,11.927,1.23,26.773,14.213,37.823c20.499,16.782,38.088,13.455,46.915,5.506c8.635-7.776,12.549-22.921,1.831-39.229
				c-10.712-16.299-35.915-35.885-58.405-28.39c-9.313,3.103-15.519,9.167-17.944,17.537c-3.529,12.18,1.316,28.771,12.345,42.268
				c13.7,16.766,33.462,27.753,50.346,27.989c10.566,0.176,19.4-3.784,26.236-11.688c9.711-11.228,10.395-27.76,1.874-45.356
				c-11.739-24.244-40.806-48.582-69.086-47.319c-16.763,0.741-28.925,8.443-34.247,21.686
				c-7.442,18.519,0.358,43.688,19.873,64.124c0.381,0.399,0.366,1.032-0.033,1.414c-0.398,0.382-1.031,0.367-1.414-0.033
				c-20.055-21.001-28.016-47.006-20.282-66.25c5.633-14.014,18.423-22.16,36.016-22.938c0.723-0.032,1.451-0.048,2.176-0.048
				c28.418,0,57.075,24.285,68.798,48.494c8.885,18.349,8.097,35.675-2.162,47.536C327.802,374.833,318.406,379.108,307.615,379.108
				z"/>
			
				<linearGradient id="SVGID_00000070808042856807640600000007952813887367762609_" gradientUnits="userSpaceOnUse" x1="316.1393" y1="412.8703" x2="519.118" y2="180.0191">
				<stop  offset="0" style="stop-color:#E4816F"/>
				<stop  offset="1" style="stop-color:#E25E52"/>
			</linearGradient>
			<path style="fill:url(#SVGID_00000070808042856807640600000007952813887367762609_);" d="M428.876,300.363
				c-0.093,0-0.188-0.013-0.282-0.041c-7.569-2.224-15.487-4.907-21.54-6.996c-0.522-0.18-0.799-0.75-0.619-1.271
				c0.18-0.522,0.747-0.798,1.271-0.619c6.032,2.082,13.922,4.755,21.452,6.967c0.529,0.156,0.833,0.711,0.677,1.241
				C429.707,300.081,429.309,300.363,428.876,300.363z"/>
		</g>
		<g>
			<path style="fill:#1C1C23;" d="M378.416,77.551c0,0-2.577,3.3-4.041,5.095c-1.464,1.795,3.463,1.799,6.981-0.788"/>
			
				<linearGradient id="SVGID_00000108308777878918919610000000662256187890024081_" gradientUnits="userSpaceOnUse" x1="380.9041" y1="69.4661" x2="442.6788" y2="122.6009">
				<stop  offset="0" style="stop-color:#FFCBCA"/>
				<stop  offset="1" style="stop-color:#E994A8"/>
			</linearGradient>
			<path style="fill:url(#SVGID_00000108308777878918919610000000662256187890024081_);" d="M433.884,98.865l-19.814-15.317
				c0.025-2.384-0.192-4.91-0.706-7.562c-4.231-21.812-42.163-15.719-35.46,6.946c0,0,4.63,16.085,14.379,22.178
				c4.852,3.033,11.143,1.232,15.719-4.029l8.53,9.268L433.884,98.865z"/>
			<path style="fill:#1C1C23;" d="M408.002,101.081c0,0,2.456-6.237,1.435-13.514c0,0,4.982,6.561,2.746,18.057L408.002,101.081z"/>
			
				<linearGradient id="SVGID_00000005988216408973914920000017188752577818191004_" gradientUnits="userSpaceOnUse" x1="528.7514" y1="1213.1119" x2="528.7514" y2="1316.7557" gradientTransform="matrix(0.968 0.2509 -0.2509 0.968 213.3408 -1084.431)">
				<stop  offset="0" style="stop-color:#FFCBCA"/>
				<stop  offset="1" style="stop-color:#E994A8"/>
			</linearGradient>
			<path style="fill:url(#SVGID_00000005988216408973914920000017188752577818191004_);" d="M430.68,217.081
				c0,0-57.416,74.656-77.221,94.971l1.828,9.084l20.387-2.696c0,0,36.35-26.768,47.182-36.685
				c10.832-9.917,15.481-22.757,15.481-22.757l23.44-24.264L430.68,217.081z"/>
			<g>
				<path style="fill:#1C1C23;" d="M354.555,310.836l11.362-13.322l17.864,15.339l-7.559,5.183c0,0-10.548,6.661-11.293,6.446
					c-0.746-0.216-10.544-4.777-10.544-4.777"/>
				
					<linearGradient id="SVGID_00000175314696235037904120000010234673141218828477_" gradientUnits="userSpaceOnUse" x1="489.3841" y1="1313.9392" x2="489.3841" y2="1349.0399" gradientTransform="matrix(0.968 0.2509 -0.2509 0.968 213.3408 -1084.431)">
					<stop  offset="0" style="stop-color:#E6832C"/>
					<stop  offset="1" style="stop-color:#E9A347"/>
				</linearGradient>
				<path style="fill:url(#SVGID_00000175314696235037904120000010234673141218828477_);" d="M357.927,316.448
					c0,0,0.715-7.514-3.47-9.673c0,0-4.512,6.599-6.818,9.528c0,0-17.237,7.013-22.233,12.869
					c-4.996,5.856-0.938,11.689-0.938,11.689l54.148-3.574c0,0,3.691-12.779-2.394-19.251L357.927,316.448z"/>
				<path style="fill:#1C1C23;" d="M379.383,337.234l-55.612,3.855c0,0-1.935-3.618-0.768-4.256l56.496-4.283
					C380.751,333.581,379.383,337.234,379.383,337.234z"/>
				<path style="fill:#1C1C23;" d="M347.639,316.303c0,0,3.012,4.117,3.059,4.754c0.25,0.796-9.614,5.744-10.1,5.323
					c-0.373-0.323-2.959-5.454-2.959-5.454S346.908,316.03,347.639,316.303z"/>
				<polygon style="fill:#FFFFFF;" points="364.101,299.642 381.526,314.399 379.151,316.027 362.339,301.709 				"/>
			</g>
			
				<linearGradient id="SVGID_00000099640454725903263210000003708645795345885589_" gradientUnits="userSpaceOnUse" x1="676.0602" y1="1464.6527" x2="656.0568" y2="1541.3324" gradientTransform="matrix(0.9462 0.3237 -0.3237 0.9462 320.8817 -1431.5614)">
				<stop  offset="0" style="stop-color:#8AB9FD"/>
				<stop  offset="1" style="stop-color:#0056E9"/>
			</linearGradient>
			<path style="fill:url(#SVGID_00000099640454725903263210000003708645795345885589_);" d="M457.446,181.507
				c0,0-21.006,27.454-30.783,39.808c0,0,6.131,15.186,27.585,26.048c0,0,26.019-23.819,36.3-38.424
				c10.282-14.605,18.387-30.205,18.387-30.205"/>
			<path style="fill:#1C1C23;" d="M495.948,200.917c-1.71,2.64-3.52,5.35-5.4,8.02c-10.28,14.61-36.3,38.43-36.3,38.43
				c-6.63-3.36-11.8-7.14-15.77-10.75l21.77-38.1L495.948,200.917z"/>
			
				<linearGradient id="SVGID_00000069382871621614314150000012258991743152871560_" gradientUnits="userSpaceOnUse" x1="473.299" y1="-179.2748" x2="473.299" y2="-75.6336" gradientTransform="matrix(0.9945 -0.1047 0.1047 0.9945 -11.2293 468.8762)">
				<stop  offset="0" style="stop-color:#FFCBCA"/>
				<stop  offset="1" style="stop-color:#E994A8"/>
			</linearGradient>
			<path style="fill:url(#SVGID_00000069382871621614314150000012258991743152871560_);" d="M448.039,232.47
				c0,0-27.574,90.054-38.994,116.026l4.899,7.865l18.145-9.677c0,0,24.648-37.82,31.313-50.906
				c6.664-13.087,6.513-26.742,6.513-26.742l13.437-30.945L448.039,232.47z"/>
			
				<linearGradient id="SVGID_00000162342897502777393280000004501590735598908063_" gradientUnits="userSpaceOnUse" x1="481.275" y1="160.4982" x2="481.275" y2="241.0066">
				<stop  offset="0" style="stop-color:#8AB9FD"/>
				<stop  offset="1" style="stop-color:#0056E9"/>
			</linearGradient>
			<path style="fill:url(#SVGID_00000162342897502777393280000004501590735598908063_);" d="M456.808,183.582
				c0,0-5.722,26.505-10.174,50.953c6.328,6.315,33.833,13.578,43.359,12.829c0,0,7.07-17.833,14.961-38.813
				c11.356-11.934,16.504-36.924,2.453-54.071L456.808,183.582z"/>
			<path style="fill:#1C1C23;" d="M511.668,198.458l-6.45-7.23c-0.74-0.84-1.06-1.98-0.82-3.07c0.38-1.72,0.83-4.82,0.59-9.42
				c-0.12-2.38-0.78-4.69-1.68-6.79l11.81-3.22C519.578,185.018,511.668,198.458,511.668,198.458z"/>
			<path style="fill:none;stroke:#1C1C23;stroke-linecap:round;stroke-linejoin:round;stroke-miterlimit:10;" d="M488.459,173.609
				c0,0,0,14.043-5.106,30.638c-3.704,12.039-12.766,38.043-12.766,38.043"/>
			
				<linearGradient id="SVGID_00000126317679857360995310000015229989024419643534_" gradientUnits="userSpaceOnUse" x1="307.6689" y1="213.6197" x2="352.4774" y2="169.5771">
				<stop  offset="0" style="stop-color:#FFCBCA"/>
				<stop  offset="1" style="stop-color:#E994A8"/>
			</linearGradient>
			<path style="fill:url(#SVGID_00000126317679857360995310000015229989024419643534_);" d="M386.43,123.782l-51.961,52.173
				c-0.006,0.001-6.825,1.109-11.267,1.885c-2.056,0.359-8.692,2.709-10.359,3.721c-1.667,1.012-0.718,3.182,1.369,3.453
				c2.977,0.387,10.419-2.262,8.633-0.833c-4.373,2.676-13.618,8.208-14.17,9.035c-0.893,1.339,0.312,3.304,2.099,3.051
				c0.799-0.113,6.404-3.178,10.829-5.653c-4.216,2.884-9.708,6.75-10.155,7.492c-0.831,1.379,0.463,3.287,2.236,2.952
				c0.806-0.152,6.43-3.576,10.769-6.27c-4.009,3.06-9.004,6.985-9.401,7.726c-0.76,1.419,0.63,3.259,2.383,2.835
				c0.607-0.147,6.082-4.054,9.473-6.372c-1.819,1.835-5.468,5.196-5.712,5.603c-0.762,1.273,0.622,3.015,2.274,2.368
				c1.124-0.439,9.046-6.445,11.758-8.954c2.351-2.175,5.477-5.358,8.186-9.853c0,0,26.598-18.834,30.78-21.403
				c5.991-3.681,10.091-8.46,10.091-8.46l22.743-15.265L386.43,123.782z"/>
			
				<linearGradient id="SVGID_00000065037208744464923350000003610057713713504953_" gradientUnits="userSpaceOnUse" x1="405.0179" y1="176.0432" x2="473.3061" y2="123.2336">
				<stop  offset="0" style="stop-color:#E6832C"/>
				<stop  offset="1" style="stop-color:#E9A347"/>
			</linearGradient>
			<path style="fill:url(#SVGID_00000065037208744464923350000003610057713713504953_);" d="M377.34,132.171
				c0,0,30.225-42.91,63.523-32.06c37.873,12.341,70.446,56.386,70.446,56.386c-9.895,23.545-37.443,34.309-69.291,41.96
				c-5.397-17.147-13.253-33.314-24.997-47.934l-17.539,10.327C399.481,160.85,380.536,149.241,377.34,132.171z"/>
			<g>
				<path style="fill:#1C1C23;" d="M409.645,346.972l5.966-16.462l22.11,8.097l-5.26,7.506c0,0-7.54,9.939-8.314,9.998
					c-0.774,0.06-11.55-0.774-11.55-0.774"/>
				
					<linearGradient id="SVGID_00000112610984011360725530000013295265259733654453_" gradientUnits="userSpaceOnUse" x1="433.929" y1="-78.4504" x2="433.929" y2="-43.3509" gradientTransform="matrix(0.9945 -0.1047 0.1047 0.9945 -11.2293 468.8762)">
					<stop  offset="0" style="stop-color:#E6832C"/>
					<stop  offset="1" style="stop-color:#E9A347"/>
				</linearGradient>
				<path style="fill:url(#SVGID_00000112610984011360725530000013295265259733654453_);" d="M414.772,351.045
					c0,0-1.967-7.287-6.643-7.84c0,0-1.911,7.762-3.042,11.314c0,0-13.681,12.614-16.305,19.851
					c-2.624,7.237,3.222,11.275,3.222,11.275l49.452-22.344c0,0-1.027-13.262-8.996-17.187L414.772,351.045z"/>
				<path style="fill:#1C1C23;" d="M442.156,362.982l-50.725,23.121c0,0-3.081-2.709-2.212-3.716l51.403-23.831
					C442.156,359.081,442.156,362.982,442.156,362.982z"/>
				<path style="fill:#1C1C23;" d="M405.087,354.519c0,0,4.265,2.798,4.533,3.379c0.514,0.658-6.988,8.752-7.591,8.529
					c-0.462-0.171-4.685-4.069-4.685-4.069S404.306,354.519,405.087,354.519z"/>
				<polygon style="fill:#FFFFFF;" points="414.657,333.141 436.151,340.846 434.499,343.205 413.732,335.694 				"/>
			</g>
			<path style="fill:#1C1C23;" d="M421.678,156.697c-1.48-2.08-3.03-4.14-4.66-6.17c0,0,13.1-7.81,15.14-8.58
				C433.498,141.447,427.078,148.758,421.678,156.697z"/>
			<path style="fill:#1C1C23;" d="M400.151,59.227c0,0-4.376-3.661-12.185-1.978c-11.962,2.577-22.226,19.873-24.166,22.055
				c-1.94,2.182,4.364,2.344,8.567,0c0,0-3.071,3.233,0,3.152c3.071-0.081,11.234-4.607,11.234-4.607s-3.879,3.395-2.344,4.122
				c1.536,0.727,7.193-1.778,9.779-3.475c0,0,4.567,3.556,8.123,3.071c0,0-0.677-7.02,4.78-7.071
				c5.075-0.048,5.305,6.624,5.049,9.943l8.489,3.957l1.915-2.617c0,0,2.252-21.696-7.372-27.543
				C405.675,54.381,400.151,59.227,400.151,59.227z"/>
		</g>
		<g>
			
				<linearGradient id="SVGID_00000034783555679811828250000003031817825691024290_" gradientUnits="userSpaceOnUse" x1="209.2025" y1="319.6523" x2="412.1812" y2="86.8011">
				<stop  offset="0" style="stop-color:#E4816F"/>
				<stop  offset="1" style="stop-color:#E25E52"/>
			</linearGradient>
			<path style="fill:url(#SVGID_00000034783555679811828250000003031817825691024290_);" d="M359.798,176.617
				c-0.04,1.94-0.47,3.41-1.3,4.49c-2.05,2.67-5.54,1.08-10.81-1.32c-3.52-1.6-7.9-3.6-13.47-5.22c-13.4-3.9-29.83-0.31-36.32,16.51
				c-3.7,9.6-3.88,17.16-4.02,23.22c-0.12,5.08-0.22,9.09-2.51,12.01c-0.19,0.25-0.49,0.39-0.78,0.39c-0.22,0-0.44-0.07-0.62-0.22
				c-0.43-0.34-0.51-0.96-0.17-1.4c1.88-2.4,1.96-5.93,2.08-10.82c0.14-5.9,0.33-13.97,4.16-23.9
				c6.94-18.01,24.46-21.87,38.74-17.71c5.7,1.66,10.16,3.69,13.74,5.32c4.94,2.25,7.36,3.27,8.39,1.93
				c0.35-0.46,0.59-1.05,0.74-1.78C358.358,177.617,359.078,177.117,359.798,176.617z"/>
			
				<linearGradient id="SVGID_00000041287155506617749180000001048869049079356051_" gradientUnits="userSpaceOnUse" x1="220.7183" y1="329.6899" x2="423.6967" y2="96.8392">
				<stop  offset="0" style="stop-color:#E4816F"/>
				<stop  offset="1" style="stop-color:#E25E52"/>
			</linearGradient>
			<path style="fill:url(#SVGID_00000041287155506617749180000001048869049079356051_);" d="M393.018,156.018
				c-0.63,1.15-1.58,2-2.84,2.55c-1.52,0.66-3.08,0.94-4.64,0.94c-5.03,0-10.21-2.88-14.91-5.49c-5.19-2.89-9.67-5.39-12.3-3.25
				c-0.77,0.63-1.3,1.56-1.57,2.81l-2.229,2.23c0.03-3.06,0.86-5.23,2.54-6.59c3.68-2.99,8.95-0.06,14.54,3.05
				c5.76,3.21,12.3,6.84,17.77,4.47c0.99-0.43,1.68-1.11,2.09-2.08C391.998,155.137,392.518,155.598,393.018,156.018z"/>
			
				<linearGradient id="SVGID_00000041994866113350044200000015313581803212299932_" gradientUnits="userSpaceOnUse" x1="233.7814" y1="341.0781" x2="436.7602" y2="108.2269">
				<stop  offset="0" style="stop-color:#E4816F"/>
				<stop  offset="1" style="stop-color:#E25E52"/>
			</linearGradient>
			<path style="fill:url(#SVGID_00000041994866113350044200000015313581803212299932_);" d="M471.048,116.448
				c-0.63-0.48-1.27-0.95-1.91-1.4c-0.03-1.13-0.34-2.19-0.93-3.19c-1.45-2.46-8.73-4.68-18.99-5.79
				c-21.46-2.33-49.29,0.42-56.53,8.22c-0.81,0.88-1.48,1.85-2,2.93c-1.09,1.01-2.12,2.02-3.08,3c0.57-2.9,1.76-5.3,3.61-7.29
				c8.73-9.39,39.9-10.83,58.22-8.85c6.58,0.71,18,2.54,20.49,6.77C470.938,112.558,471.319,114.438,471.048,116.448z"/>
			
				<linearGradient id="SVGID_00000052087139660896190740000004755822457128446901_" gradientUnits="userSpaceOnUse" x1="276.3164" y1="378.1566" x2="479.2952" y2="145.3053">
				<stop  offset="0" style="stop-color:#E4816F"/>
				<stop  offset="1" style="stop-color:#E25E52"/>
			</linearGradient>
			<path style="fill:url(#SVGID_00000052087139660896190740000004755822457128446901_);" d="M509.508,154.178
				c-0.49-0.63-1.1-1.38-1.8-2.24c-0.1-0.99-0.56-1.94-1.37-2.88c-5.05-5.87-23.4,3.09-39.59,10.99
				c-13.12,6.4-25.73,12.55-33.52,12.55c-3.15,0-5.5-1-6.8-3.39c-1-1.86-1.17-3.93-0.52-6.19c0.55,0.87,1.09,1.75,1.61,2.63
				c0.01,0.93,0.23,1.79,0.67,2.6c3.58,6.63,20.92-1.82,37.68-10c18.48-9.01,35.94-17.53,41.99-10.49
				C509.558,149.727,510.108,151.887,509.508,154.178z"/>
			
				<linearGradient id="SVGID_00000086679826295716393250000014400028131048986032_" gradientUnits="userSpaceOnUse" x1="307.4917" y1="405.3335" x2="510.4705" y2="172.4822">
				<stop  offset="0" style="stop-color:#E4816F"/>
				<stop  offset="1" style="stop-color:#E25E52"/>
			</linearGradient>
			<path style="fill:url(#SVGID_00000086679826295716393250000014400028131048986032_);" d="M493.078,248.637
				c-2.19,2.87-6.37,4.29-12.72,4.29c-1.07,0-2.2-0.04-3.39-0.12l0.84-1.96c7.13,0.41,11.62-0.72,13.69-3.42
				c0.98-1.29,1.32-2.6,1.02-4.02c-1.29-6.22-13.99-13.32-26.28-20.19c-13.25-7.4-26.32-14.77-27.33-21.75
				c-0.26-1.79,0.48-3.67,2.24-5.69c0.25,0.76,0.5,1.52,0.74,2.29c-0.8,1.15-1.13,2.19-1,3.11c0.87,6.01,14.09,13.46,26.33,20.3
				c13.26,7.41,25.79,14.41,27.26,21.53C494.888,244.997,494.418,246.887,493.078,248.637z"/>
			
				<linearGradient id="SVGID_00000001629988872712559450000014573317775361938838_" gradientUnits="userSpaceOnUse" x1="314.3584" y1="411.3188" x2="517.3384" y2="178.4662">
				<stop  offset="0" style="stop-color:#E4816F"/>
				<stop  offset="1" style="stop-color:#E25E52"/>
			</linearGradient>
			<path style="fill:url(#SVGID_00000001629988872712559450000014573317775361938838_);" d="M464.498,301.217
				c-0.08,0.89-0.55,2.13-2.28,2.99c-1.12,0.56-2.52,0.93-4.18,1.12c0.46-0.77,0.89-1.52,1.31-2.24c0.76-0.17,1.42-0.39,1.98-0.67
				c0.99-0.49,1.15-1.02,1.18-1.38c0.4-4.24-13.11-14.51-25.03-23.57c-16.96-12.88-34.49-26.21-31.38-34.02
				c0.96-2.39,3.33-3.73,7.26-4.09c-0.59,0.75-1.19,1.52-1.81,2.3c-1.91,0.46-3.1,1.29-3.59,2.54c-2.55,6.39,15.9,20.41,30.73,31.68
				C452.808,286.608,465.008,295.878,464.498,301.217z"/>
			
				<linearGradient id="SVGID_00000097486835396279327200000016670910348134086846_" gradientUnits="userSpaceOnUse" x1="282.8595" y1="383.8597" x2="485.8386" y2="151.0082">
				<stop  offset="0" style="stop-color:#E4816F"/>
				<stop  offset="1" style="stop-color:#E25E52"/>
			</linearGradient>
			<path style="fill:url(#SVGID_00000097486835396279327200000016670910348134086846_);" d="M378.878,282.568
				c-0.54,0.67-1.09,1.33-1.62,1.98c-7.51,0.23-10.89,4.83-11.05,5.05c-5.35,6.23-6.36,19.5-7.42,33.55
				c-2.13,28.03-4.77,62.92-42.16,65.47c-1.67,0.12-3.32,0.17-4.94,0.17c-31.78,0-53.4-21.05-60.74-28.2l-0.65-0.63
				c-0.4-0.38-0.41-1.02-0.02-1.41c0.38-0.4,1.01-0.41,1.41-0.03l0.65,0.64c7.56,7.36,30.57,29.76,64.16,27.47
				c35.66-2.44,38.12-34.95,40.29-63.63c1.14-15.01,2.12-27.97,7.85-34.64C364.768,288.168,369.158,282.108,378.878,282.568z"/>
		</g>
	</g>
	<g>
		<g>
			
				<rect x="157.759" y="136.861" transform="matrix(0.9787 0.2051 -0.2051 0.9787 38.6224 -35.1363)" style="fill:#FFFFFF;" width="62.065" height="63.733"/>
			
				<linearGradient id="SVGID_00000088134617246442164010000001374130039908540584_" gradientUnits="userSpaceOnUse" x1="174.4214" y1="121.476" x2="204.2936" y2="221.0501">
				<stop  offset="0" style="stop-color:#8AB9FD"/>
				<stop  offset="1" style="stop-color:#0056E9"/>
			</linearGradient>
			<polygon style="fill:url(#SVGID_00000088134617246442164010000001374130039908540584_);" points="211.816,195.339 
				157.02,183.855 165.607,142.879 220.403,154.363 			"/>
			<g>
				<g>
					<path style="fill:#FFFFFF;" d="M200.71,184.073c-0.143,0-0.287-0.015-0.43-0.045l-28.153-5.9
						c-1.121-0.235-1.841-1.337-1.607-2.458l3.06-14.602c0.114-0.543,0.432-1.009,0.896-1.312c0.464-0.304,1.019-0.409,1.562-0.294
						l6.75,1.415l1.153-2.49c0.368-0.795,1.225-1.226,2.081-1.045l9.876,2.07c0.857,0.18,1.469,0.917,1.487,1.793l0.056,2.744
						l6.75,1.415l0,0c1.121,0.235,1.841,1.338,1.607,2.458l-3.06,14.602c-0.114,0.543-0.432,1.009-0.896,1.312
						C201.5,183.958,201.109,184.073,200.71,184.073z M175.61,160.411c-0.208,0-0.412,0.06-0.59,0.177
						c-0.242,0.158-0.408,0.401-0.467,0.684l-3.06,14.602c-0.122,0.584,0.253,1.159,0.838,1.282l28.153,5.9
						c0.282,0.059,0.572,0.005,0.815-0.153c0.242-0.158,0.408-0.401,0.467-0.684l3.06-14.602c0.122-0.584-0.254-1.159-0.838-1.282
						l-7.137-1.496c-0.226-0.047-0.39-0.245-0.395-0.476l-0.064-3.139c-0.008-0.41-0.295-0.756-0.697-0.84l-9.876-2.07
						c-0.401-0.084-0.803,0.117-0.975,0.49l-1.32,2.849c-0.097,0.21-0.326,0.325-0.553,0.277l-7.136-1.496
						C175.76,160.419,175.685,160.411,175.61,160.411z"/>
				</g>
				<g>
					<path style="fill:#FFFFFF;" d="M188.355,177.147c-0.429,0-0.864-0.044-1.3-0.135c-3.417-0.716-5.615-4.079-4.899-7.497
						c0.716-3.418,4.079-5.616,7.497-4.899c3.418,0.716,5.615,4.08,4.899,7.497l0,0
						C193.927,175.094,191.288,177.147,188.355,177.147z M188.353,165.474c-2.473,0-4.698,1.731-5.225,4.245
						c-0.604,2.881,1.249,5.717,4.131,6.321c2.88,0.602,5.716-1.249,6.321-4.13l0,0c0.604-2.881-1.249-5.717-4.13-6.321
						C189.082,165.511,188.714,165.474,188.353,165.474z M194.066,172.011h0.004H194.066z"/>
				</g>
			</g>
			
				<linearGradient id="SVGID_00000026861413809448572330000006804965040927930243_" gradientUnits="userSpaceOnUse" x1="150.9578" y1="128.5151" x2="180.83" y2="228.0892">
				<stop  offset="0" style="stop-color:#8AB9FD"/>
				<stop  offset="1" style="stop-color:#0056E9"/>
			</linearGradient>
			<polygon style="fill:url(#SVGID_00000026861413809448572330000006804965040927930243_);" points="183.411,196.548 
				155.582,190.716 156.402,186.805 184.23,192.637 			"/>
			<g>
				
					<linearGradient id="SVGID_00000104667851694628419560000006705565976482607750_" gradientUnits="userSpaceOnUse" x1="165.6989" y1="124.0927" x2="195.571" y2="223.6669">
					<stop  offset="0" style="stop-color:#8AB9FD"/>
					<stop  offset="1" style="stop-color:#0056E9"/>
				</linearGradient>
				<path style="opacity:0.3;fill:url(#SVGID_00000104667851694628419560000006705565976482607750_);" d="M172.963,138.587
					c-0.36,1.718-2.045,2.82-3.764,2.46c-1.718-0.36-2.819-2.045-2.459-3.764c0.36-1.718,2.045-2.82,3.764-2.459
					C172.222,135.183,173.323,136.868,172.963,138.587z"/>
				
					<linearGradient id="SVGID_00000003790168011038243350000007684751930837744006_" gradientUnits="userSpaceOnUse" x1="176.0533" y1="120.9863" x2="205.9255" y2="220.5606">
					<stop  offset="0" style="stop-color:#8AB9FD"/>
					<stop  offset="1" style="stop-color:#0056E9"/>
				</linearGradient>
				<path style="opacity:0.3;fill:url(#SVGID_00000003790168011038243350000007684751930837744006_);" d="M187.817,142.818
					l-12.293-2.576c-0.591-0.124-0.971-0.704-0.847-1.295l0,0c0.124-0.591,0.704-0.97,1.296-0.846l12.293,2.576
					c0.591,0.124,0.97,0.704,0.846,1.295l0,0C188.988,142.563,188.408,142.942,187.817,142.818z"/>
			</g>
		</g>
		<g>
			<path style="fill:#1C1C23;" d="M360.567,229.29h-40.566c-3.074,0-5.566,2.492-5.566,5.566v19.904
				c0,3.074,2.492,5.566,5.566,5.566h14.391c0.409,0,0.789,0.211,1.006,0.557l4.099,6.548c0.364,0.582,1.211,0.582,1.575,0
				l4.098-6.548c0.217-0.347,0.597-0.557,1.006-0.557h14.391c3.074,0,5.566-2.492,5.566-5.566v-19.904
				C366.133,231.782,363.641,229.29,360.567,229.29z"/>
			<path style="fill:#FFFFFF;" d="M348.589,234.691c-4.889-2.066-8.305,2.675-8.305,2.675s-3.416-4.741-8.305-2.675
				c-3.178,1.344-5.477,6.114-1.701,12.144c1.762,2.813,5.853,6.58,10.006,8.491c4.152-1.911,8.243-5.678,10.005-8.491
				C354.066,240.805,351.767,236.035,348.589,234.691z"/>
		</g>
		<g>
			<path style="fill:none;stroke:currentColor;stroke-width:0.75;stroke-linecap:round;stroke-linejoin:round;stroke-miterlimit:10;" d="
				M479.522,299.642c0,0,3.691-35.214,38.999-35.448c38.553-0.255,37.021,61.532,21.447,56.942
				c-10.924-3.22-6.192-70.777,45.383-68.814c65.842,2.506,53.3,74.872,42.447,90.882"/>
			<path style="fill:none;stroke:currentColor;stroke-width:0.75;stroke-linecap:round;stroke-linejoin:round;stroke-miterlimit:10;" d="
				M265.821,178.734c21.572,7.333,56.973-11.941,43.857-39.199c-5.498-11.425-20.321-14.58-29.354-11.716
				c-9.29,2.945-14.432,11.505-11.633,15.227c2.663,3.54,10.591-1.03,12.064-8.426c1.439-7.223-3.472-17.172-16.277-17.362"/>
			<g>
				<polygon style="fill:#020202;" points="259.22,115.652 222.741,77.876 260.319,104.544 				"/>
				
					<linearGradient id="SVGID_00000183232547300777589480000008040141250612925073_" gradientUnits="userSpaceOnUse" x1="238.2911" y1="86.8082" x2="304.8334" y2="129.0314">
					<stop  offset="0" style="stop-color:#8AB9FD"/>
					<stop  offset="1" style="stop-color:#0056E9"/>
				</linearGradient>
				<polygon style="fill:url(#SVGID_00000183232547300777589480000008040141250612925073_);" points="247.728,113.127 
					278.621,92.068 222.741,77.876 				"/>
				
					<linearGradient id="SVGID_00000106830108971443644650000012071327419920655546_" gradientUnits="userSpaceOnUse" x1="208.8724" y1="74.4913" x2="226.5852" y2="85.502">
					<stop  offset="0" style="stop-color:#8AB9FD"/>
					<stop  offset="1" style="stop-color:#0056E9"/>
				</linearGradient>
				<polygon style="fill:url(#SVGID_00000106830108971443644650000012071327419920655546_);" points="266.409,100.393 
					222.741,77.876 260.319,104.544 259.22,115.652 				"/>
			</g>
		</g>
	</g>
	<g>
		<g>
			
				<linearGradient id="SVGID_00000158749935411620025640000003725337779636646538_" gradientUnits="userSpaceOnUse" x1="327.835" y1="52.7961" x2="346.0266" y2="72.5196">
				<stop  offset="0" style="stop-color:#E4816F"/>
				<stop  offset="1" style="stop-color:#E25E52"/>
			</linearGradient>
			<path style="fill:url(#SVGID_00000158749935411620025640000003725337779636646538_);" d="M336.935,49.622
				c-7.2,0-13.04,5.84-13.04,13.05c0,7.2,5.84,13.04,13.04,13.04c7.21,0,13.05-5.84,13.05-13.04
				C349.985,55.462,344.145,49.622,336.935,49.622z M336.935,70.712c-4.44,0-8.04-3.6-8.04-8.04c0-4.45,3.6-8.05,8.04-8.05
				c4.45,0,8.05,3.6,8.05,8.05C344.985,67.112,341.385,70.712,336.935,70.712z"/>
			
				<linearGradient id="SVGID_00000056426330554869230970000003069428299448485792_" gradientUnits="userSpaceOnUse" x1="173.1497" y1="155.3143" x2="176.0203" y2="158.4265">
				<stop  offset="0" style="stop-color:#E4816F"/>
				<stop  offset="1" style="stop-color:#E25E52"/>
			</linearGradient>
			<path style="fill:url(#SVGID_00000056426330554869230970000003069428299448485792_);" d="M176.645,156.872
				c0,1.137-0.922,2.058-2.059,2.058c-1.137,0-2.059-0.922-2.059-2.058c0-1.137,0.922-2.059,2.059-2.059
				C175.723,154.813,176.645,155.735,176.645,156.872z"/>
			
				<linearGradient id="SVGID_00000010307435487044873350000009175501474623010741_" gradientUnits="userSpaceOnUse" x1="457.8205" y1="364.9183" x2="458.3205" y2="364.9183">
				<stop  offset="0" style="stop-color:#8AB9FD"/>
				<stop  offset="1" style="stop-color:#0056E9"/>
			</linearGradient>
			<path style="fill:url(#SVGID_00000010307435487044873350000009175501474623010741_);" d="M643.629,364.918
				c0,1.375-1.115,2.489-2.489,2.489s-2.489-1.115-2.489-2.489c0-1.375,1.115-2.489,2.489-2.489S643.629,363.544,643.629,364.918z"
				/>
			
				<linearGradient id="SVGID_00000130617569074887585550000007232930099389610377_" gradientUnits="userSpaceOnUse" x1="562.5543" y1="428.0341" x2="553.4374" y2="418.9172">
				<stop  offset="0" style="stop-color:#E6832C"/>
				<stop  offset="1" style="stop-color:#E9A347"/>
			</linearGradient>
			<circle style="fill:url(#SVGID_00000130617569074887585550000007232930099389610377_);" cx="555.503" cy="420.983" r="5.548"/>
			
				<linearGradient id="SVGID_00000106844102709134365790000006473735661594794915_" gradientUnits="userSpaceOnUse" x1="549.7019" y1="69.3901" x2="545.0754" y2="64.7635">
				<stop  offset="0" style="stop-color:#E6832C"/>
				<stop  offset="1" style="stop-color:#E9A347"/>
			</linearGradient>
			<path style="fill:url(#SVGID_00000106844102709134365790000006473735661594794915_);" d="M548.939,65.812
				c0,1.555-1.261,2.816-2.816,2.816c-1.555,0-2.816-1.261-2.816-2.816c0-1.555,1.261-2.815,2.816-2.815
				C547.679,62.996,548.939,64.257,548.939,65.812z"/>
			<path d="M589.975,155.333c0,1.586-1.286,2.872-2.872,2.872c-1.586,0-2.872-1.286-2.872-2.872c0-1.586,1.286-2.872,2.872-2.872
				C588.689,152.461,589.975,153.747,589.975,155.333z"/>
			
				<linearGradient id="SVGID_00000121248946417889298050000012366969892537420684_" gradientUnits="userSpaceOnUse" x1="102.0684" y1="201.1819" x2="124.6642" y2="239.4798">
				<stop  offset="0" style="stop-color:#8AB9FD"/>
				<stop  offset="1" style="stop-color:#0056E9"/>
			</linearGradient>
			<path style="fill:url(#SVGID_00000121248946417889298050000012366969892537420684_);" d="M108.551,199.975
				c-6.74,0-12.19,5.46-12.19,12.19c0,6.74,5.45,12.19,12.19,12.19c6.73,0,12.19-5.45,12.19-12.19
				C120.741,205.435,115.281,199.975,108.551,199.975z M108.551,222.595c-5.76,0-10.43-4.67-10.43-10.43
				c0-5.76,4.67-10.43,10.43-10.43s10.43,4.67,10.43,10.43C118.981,217.925,114.311,222.595,108.551,222.595z"/>
			<path d="M266.797,48.386c0,1.128-0.914,2.043-2.042,2.043c-1.128,0-2.043-0.915-2.043-2.043c0-1.128,0.914-2.042,2.043-2.042
				C265.883,46.344,266.797,47.258,266.797,48.386z"/>
			<path d="M104.895,115.866c0,1.573-1.275,2.847-2.847,2.847c-1.573,0-2.847-1.275-2.847-2.847c0-1.572,1.275-2.847,2.847-2.847
				C103.62,113.019,104.895,114.293,104.895,115.866z"/>
			
				<linearGradient id="SVGID_00000129172752109533370140000013743524213911195825_" gradientUnits="userSpaceOnUse" x1="645.9091" y1="282.4665" x2="652.3866" y2="289.4894">
				<stop  offset="0" style="stop-color:#E4816F"/>
				<stop  offset="1" style="stop-color:#E25E52"/>
			</linearGradient>
			<path style="fill:url(#SVGID_00000129172752109533370140000013743524213911195825_);" d="M653.796,285.982
				c0,2.565-2.08,4.645-4.645,4.645c-2.565,0-4.645-2.08-4.645-4.645c0-2.566,2.08-4.645,4.645-4.645
				C651.716,281.336,653.796,283.416,653.796,285.982z"/>
			
				<linearGradient id="SVGID_00000021831211758355760470000009792500099741026957_" gradientUnits="userSpaceOnUse" x1="384.5489" y1="205.1615" x2="388.0967" y2="209.008">
				<stop  offset="0" style="stop-color:#E4816F"/>
				<stop  offset="1" style="stop-color:#E25E52"/>
			</linearGradient>
			<path style="fill:url(#SVGID_00000021831211758355760470000009792500099741026957_);" d="M388.869,207.087
				c0,1.405-1.139,2.544-2.544,2.544s-2.544-1.139-2.544-2.544c0-1.405,1.139-2.544,2.544-2.544S388.869,205.682,388.869,207.087z"
				/>
			<path d="M576.494,164.898c0,3.325-2.695,6.02-6.02,6.02c-3.325,0-6.02-2.695-6.02-6.02c0-3.325,2.695-6.02,6.02-6.02
				C573.799,158.877,576.494,161.572,576.494,164.898z"/>
			
				<linearGradient id="SVGID_00000050636239997452023970000007569858392763868607_" gradientUnits="userSpaceOnUse" x1="466.388" y1="73.9357" x2="497.7923" y2="112.9995">
				<stop  offset="0" style="stop-color:#8AB9FD"/>
				<stop  offset="1" style="stop-color:#0056E9"/>
			</linearGradient>
			<path style="opacity:0.1;fill:url(#SVGID_00000050636239997452023970000007569858392763868607_);" d="M479.764,80.004
				c0,4.693-3.805,8.498-8.498,8.498c-4.693,0-8.498-3.805-8.498-8.498c0-4.693,3.805-8.498,8.498-8.498
				C475.96,71.505,479.764,75.31,479.764,80.004z"/>
			
				<linearGradient id="SVGID_00000147915341496098554710000005683027412106654651_" gradientUnits="userSpaceOnUse" x1="131.6397" y1="399.1984" x2="155.1527" y2="399.1984">
				<stop  offset="0" style="stop-color:#8AB9FD"/>
				<stop  offset="1" style="stop-color:#0056E9"/>
			</linearGradient>
			<path style="opacity:0.1;fill:url(#SVGID_00000147915341496098554710000005683027412106654651_);" d="M155.153,399.198
				c0,6.493-5.264,11.757-11.757,11.757c-6.493,0-11.756-5.263-11.756-11.757c0-6.493,5.264-11.756,11.756-11.756
				C149.889,387.442,155.153,392.705,155.153,399.198z"/>
			
				<linearGradient id="SVGID_00000163061570723041461620000009287703089322564491_" gradientUnits="userSpaceOnUse" x1="116.3183" y1="370.9135" x2="128.3821" y2="387.3817">
				<stop  offset="0" style="stop-color:#8AB9FD"/>
				<stop  offset="1" style="stop-color:#0056E9"/>
			</linearGradient>
			<path style="opacity:0.1;fill:url(#SVGID_00000163061570723041461620000009287703089322564491_);" d="M127.918,381.849
				c0,1.982-1.607,3.589-3.589,3.589c-1.982,0-3.589-1.607-3.589-3.589c0-1.982,1.607-3.589,3.589-3.589
				C126.311,378.26,127.918,379.867,127.918,381.849z"/>
			
				<linearGradient id="SVGID_00000113310854213333421030000010215560567233942938_" gradientUnits="userSpaceOnUse" x1="599.6588" y1="146.94" x2="663.6071" y2="227.9411">
				<stop  offset="0" style="stop-color:#8AB9FD"/>
				<stop  offset="1" style="stop-color:#0056E9"/>
			</linearGradient>
			<path style="opacity:0.1;fill:url(#SVGID_00000113310854213333421030000010215560567233942938_);" d="M664.165,207.95
				c0,9.025-7.315,16.341-16.34,16.341c-9.025,0-16.341-7.316-16.341-16.341c0-9.025,7.316-16.341,16.341-16.341
				C656.849,191.609,664.165,198.925,664.165,207.95z"/>
			
				<linearGradient id="SVGID_00000073685651813523622950000005551700976544705184_" gradientUnits="userSpaceOnUse" x1="555.7805" y1="311.3549" x2="635.9812" y2="379.3731">
				<stop  offset="0" style="stop-color:#8AB9FD"/>
				<stop  offset="1" style="stop-color:#0056E9"/>
			</linearGradient>
			<path style="opacity:0.1;fill:url(#SVGID_00000073685651813523622950000005551700976544705184_);" d="M604.157,346.552
				c0,3.797-3.078,6.874-6.874,6.874c-3.796,0-6.874-3.077-6.874-6.874c0-3.796,3.078-6.874,6.874-6.874
				C601.079,339.678,604.157,342.756,604.157,346.552z"/>
			<path d="M81.992,393.768c0,2.46-1.995,4.455-4.455,4.455c-2.46,0-4.455-1.995-4.455-4.455c0-2.461,1.995-4.455,4.455-4.455
				C79.998,389.313,81.992,391.307,81.992,393.768z"/>
		</g>
		<g>
			
				<linearGradient id="XMLID_00000067921374368161720900000011006258438073761724_" gradientUnits="userSpaceOnUse" x1="603.3194" y1="606.2469" x2="603.3194" y2="641.9377" gradientTransform="matrix(0.9666 0.2564 -0.2564 0.9666 106.8334 -528.1633)">
				<stop  offset="0" style="stop-color:#E4816F"/>
				<stop  offset="1" style="stop-color:#E25E52"/>
			</linearGradient>
			
				<path id="XMLID_00000026856116895259279190000017401160471318274965_" style="fill:url(#XMLID_00000067921374368161720900000011006258438073761724_);" d="
				M543.139,222.759c-1.903-2.837-5.084-3.019-7.4-2.409c-2.262,0.596-3.792,2.029-3.792,2.029s-0.618-2.003-2.288-3.642
				c-1.709-1.678-4.562-3.096-7.621-1.575c-7.239,3.599-1.728,18.3,5.174,23.066C535.57,239.509,547.643,229.473,543.139,222.759z"
				/>
			
				<linearGradient id="XMLID_00000109022057946250460750000006583525764963926159_" gradientUnits="userSpaceOnUse" x1="582.0743" y1="-224.0356" x2="582.0743" y2="-203.3401" gradientTransform="matrix(0.9022 -0.4313 0.4313 0.9022 0.6353 844.2796)">
				<stop  offset="0" style="stop-color:#E4816F"/>
				<stop  offset="1" style="stop-color:#E25E52"/>
			</linearGradient>
			
				<path id="XMLID_00000007408030573609389890000017805405091148215986_" style="fill:url(#XMLID_00000109022057946250460750000006583525764963926159_);" d="
				M436.79,392.4c-1.906-0.537-3.379,0.578-4.173,1.717c-0.775,1.113-0.912,2.321-0.912,2.321s-1.026-0.652-2.379-0.748
				c-1.385-0.098-3.178,0.348-3.957,2.169c-1.844,4.31,6.115,8.729,10.954,8.239C439.744,402.64,441.302,393.671,436.79,392.4z"/>
			
				<linearGradient id="XMLID_00000155125240126566543520000003222415874417747872_" gradientUnits="userSpaceOnUse" x1="409.4855" y1="1085.4594" x2="409.4855" y2="1106.1539" gradientTransform="matrix(0.9619 0.2735 -0.2735 0.9619 88.3629 -809.0804)">
				<stop  offset="0" style="stop-color:#E4816F"/>
				<stop  offset="1" style="stop-color:#E25E52"/>
			</linearGradient>
			
				<path id="XMLID_00000032649596352171558890000002728410426910404752_" style="fill:url(#XMLID_00000155125240126566543520000003222415874417747872_);" d="
				M190.242,353.038c-1.074-1.664-2.916-1.803-4.265-1.473c-1.318,0.322-2.219,1.137-2.219,1.137s-0.338-1.167-1.289-2.135
				c-0.974-0.99-2.613-1.842-4.402-0.991c-4.234,2.012-1.19,10.591,2.763,13.425C185.682,362.671,192.784,356.976,190.242,353.038z"
				/>
		</g>
	</g>
	<g>
		
			<line style="fill:none;stroke:currentColor;stroke-linecap:round;stroke-miterlimit:10;" x1="53.368" y1="455.506" x2="696.632" y2="455.506"/>
		
			<line style="fill:none;stroke:currentColor;stroke-linecap:round;stroke-miterlimit:10;" x1="467.633" y1="461.91" x2="528.968" y2="461.91"/>
		
			<line style="fill:none;stroke:currentColor;stroke-linecap:round;stroke-miterlimit:10;" x1="233.098" y1="461.91" x2="442.156" y2="461.91"/>
	</g>
</g>
</svg>
